<svg xmlns="http://www.w3.org/2000/svg" display="none">
<!-- width="74.696px" height="72.345px" BURGER -->	
	<symbol id="icon-house" viewBox="0 0 74.696 72.345">
	  <g fill="#81b3d2">
	  	<path d="M29.503 43.845v21.5h16V41.407h-16v2.438zm13.063 18.562H32.44V44.345h10.126v18.062z"/>
	  	<path d="M72.62 39.44l2.076-2.078-9.908-9.913V.47H50.974v13.162L37.35 0 0 37.363l2.077 2.078 7.832-7.83v37.798H5.97v2.938h63.876v-2.938h-5.06v-37.8l7.834 7.832zM53.913 3.408h7.938v21.104l-7.937-7.94V3.408zm7.937 66H12.846V28.67l24.502-24.5 24.502 24.5v40.737z"/>
	  	<path d="M29.753 27.21c0 4.28 3.47 7.75 7.75 7.75s7.75-3.47 7.75-7.75-3.47-7.75-7.75-7.75-7.75 3.47-7.75 7.75zm7.75-4.97c2.745 0 4.97 2.226 4.97 4.97s-2.225 4.97-4.97 4.97c-2.745 0-4.97-2.224-4.97-4.97s2.226-4.97 4.97-4.97zM16.91 41.407h3v3.938h-3zM22.846 41.407h3v3.938h-3zM16.91 47.407h3v3.938h-3zM22.846 47.407h3v3.938h-3zM48.846 41.407h3v3.938h-3zM54.784 41.407h3v3.938h-3zM48.846 47.407h3v3.938h-3zM54.784 47.407h3v3.938h-3z"/>
	  </g>
	</symbol>

	<!-- width="63px" height="75.084px"  GIFT -->
	<svg id="icon-gift" version="1.0" viewBox="0 0 63 75.084">
		<path fill="#81b3d2" fill-rule="evenodd" clip-rule="evenodd" d="M60.165,22.23h-0.103H35.758c13.603-6.815,14.688-11.115,14.188-13.52
		c-1.145-3.916-5.605-6.938-9.849-5.341c-5.484,2.063-7.028,10.262-8.513,16.19c-1.894-5.998-3.726-13.649-8.011-17.525
		c-1.242-1.125-3.049-2.237-5.676-2.003c-3.965,0.352-9.652,5.317-7.344,10.849c2.217,5.313,9.539,8.67,14.354,11.35H3.104h-0.27
		C1.275,22.23,0,23.506,0,25.065V36.25c0,1.559,1.275,2.834,2.835,2.834h0.27v33.062v2.405v0.532h56.958v-0.532v-2.405V39.084h0.103
		c1.56,0,2.835-1.275,2.835-2.834V25.065C63,23.506,61.725,22.23,60.165,22.23z M41.766,5.873c2.07-0.306,4.907,1.283,5.175,3.171
		c0.386,2.723-3.348,5.192-5.008,6.343c-2.484,1.723-4.852,2.611-7.177,4.006C35.628,15.748,37.267,6.539,41.766,5.873z
		 M19.232,15.721c-2.19-1.467-6.444-4.378-6.342-7.678c0.11-3.552,5.655-6.491,8.68-3.839c3.797,3.331,5.625,10.972,7.01,16.357
		C25.381,19.042,22.35,17.808,19.232,15.721z M25.114,72.147H6.042V39.084h19.072V72.147z M25.114,36.084H3V25.23h22.114V36.084z
		 M35.115,36.084v3v33.062h-7.063V39.084v-3V25.23h7.063V36.084z M57.125,72.147H38.053V39.084h19.072V72.147z M60,36.084H38.053
		V25.23H60V36.084z"/>
	</svg>
</svg>
