<svg xmlns="http://www.w3.org/2000/svg" display="none">
	<!-- width="46" height="46" -->
	<svg id="icon-facebook" viewBox="0 0 46 46">
	  <path d="M0 0h46v46H0z"/>
	  <path fill="#FFF" d="M24.9 16.9h2.4v-3.4h-2.9c-3.1.2-4.3 2.4-3.8 6.1h-1.9v3.5h2v9.3h3.8v-9.3h2.9v-3.5h-2.9c-.1-1-.1-2.4.4-2.7z"/>
	</svg>
	
	<!-- width="46" height="46" -->
	<svg id="icon-youtube" viewBox="0 0 46 46">
	  <path d="M0 0h46v46H0z"/>
	  <path fill="#FFF" d="M30.2 16H15.8c-1.6 0-2.8 1.3-2.8 2.8v8.3c0 1.6 1.3 2.8 2.8 2.8h14.3c1.6 0 2.8-1.3 2.8-2.8v-8.3c.1-1.5-1.2-2.8-2.7-2.8zM20 26.4v-6.8l6.8 3.4-6.8 3.4z"/>
	</svg>
	
	<!-- width="46" height="46" -->
	<svg id="icon-twitter" viewBox="0 0 46 46">
	  <path d="M0 0h46v46H0z"/>
	  <path fill="#FFF" d="M25.5 15.8c1.7-.5 3.1.3 3.7 1.1.7-.2 1.4-.5 2.1-.7 0 .8-.5 1.5-.9 1.7.7.2 1.3-.5 1.3-.5-.2 1-1 1.7-1.6 2-.2 6.6-3.3 11-10.4 10.8h-.5c-.4 0-4.3-.5-5-1.8 2.3.2 4-.4 4.8-1.1-1-.3-2.8-.5-3.1-2.9.4.1.6.2 1.2.1-1.2-.8-2.6-1.5-2.5-3.7.3.3 1.1.5 1.4.5-.7-.2-2-3.3-.9-4.8 1.9 1.8 3.8 3.5 7.4 3.7.3-2.2 1.2-3.7 3-4.4z"/>
	</svg>
</svg>
